<?xml version="1.0" encoding="UTF-8"?>
<svg version="1.1" xmlns="http://www.w3.org/2000/svg" width="71" height="55">
<path d="M0 0 C23.43 0 46.86 0 71 0 C71 18.15 71 36.3 71 55 C47.57 55 24.14 55 0 55 C0 36.85 0 18.7 0 0 Z " fill="#FCFCFC" transform="translate(0,0)"/>
<path d="M0 0 C1.50433594 0.01353516 1.50433594 0.01353516 3.0390625 0.02734375 C3.80992188 0.03894531 4.58078125 0.05054688 5.375 0.0625 C5.705 1.0525 6.035 2.0425 6.375 3.0625 C7.35339844 2.97548828 7.35339844 2.97548828 8.3515625 2.88671875 C16.39277929 2.47161169 16.39277929 2.47161169 20 5.125 C22.375 8.0625 22.375 8.0625 22.75 11.875 C22.564375 13.4528125 22.564375 13.4528125 22.375 15.0625 C18.085 15.0625 13.795 15.0625 9.375 15.0625 C9.045 16.0525 8.715 17.0425 8.375 18.0625 C7.715 17.4025 7.055 16.7425 6.375 16.0625 C3.94247339 15.60087573 3.94247339 15.60087573 1.25 15.4375 C0.33992188 15.36273438 -0.57015625 15.28796875 -1.5078125 15.2109375 C-2.20648438 15.16195313 -2.90515625 15.11296875 -3.625 15.0625 C-3.625 15.7225 -3.625 16.3825 -3.625 17.0625 C-1.975 17.3925 -0.325 17.7225 1.375 18.0625 C1.68568741 21.48006151 1.7375104 23.46356977 -0.0625 26.4375 C-2.92780076 28.25451999 -3.9844202 28.24130745 -7.28515625 28.1640625 C-8.50344116 28.14206787 -8.50344116 28.14206787 -9.74633789 28.11962891 C-10.36629639 28.10077637 -10.98625488 28.08192383 -11.625 28.0625 C-11.74154436 24.5002769 -11.8123639 20.93854658 -11.875 17.375 C-11.90851562 16.36759766 -11.94203125 15.36019531 -11.9765625 14.32226562 C-12.07570627 6.8121251 -12.07570627 6.8121251 -9.734375 2.91796875 C-6.36166229 -0.04876928 -4.4162488 -0.05135173 0 0 Z " fill="#35AD72" transform="translate(27.625,7.9375)"/>
<path d="M0 0 C3.3666837 0.30606215 5.56154387 0.7000037 8.375 2.625 C10.57205971 5.83608727 10.29257019 8.19658751 10 12 C5.71 12 1.42 12 -3 12 C-3.33 12.99 -3.66 13.98 -4 15 C-4.66 14.34 -5.32 13.68 -6 13 C-8.43252661 12.53837573 -8.43252661 12.53837573 -11.125 12.375 C-12.03507812 12.30023438 -12.94515625 12.22546875 -13.8828125 12.1484375 C-14.58148438 12.09945313 -15.28015625 12.05046875 -16 12 C-16 12.66 -16 13.32 -16 14 C-14.35 14.33 -12.7 14.66 -11 15 C-11 16.98 -11 18.96 -11 21 C-11.33 19.68 -11.66 18.36 -12 17 C-13.65 16.67 -15.3 16.34 -17 16 C-17 16.66 -17 17.32 -17 18 C-16.01 18.33 -15.02 18.66 -14 19 C-15.32 19.33 -16.64 19.66 -18 20 C-19.17571451 16.32589215 -19.07366746 12.83070817 -19 9 C-15.7 9 -12.4 9 -9 9 C-9 9.66 -9 10.32 -9 11 C-6.36 11 -3.72 11 -1 11 C-1 10.01 -1 9.02 -1 8 C-1.66 8 -2.32 8 -3 8 C-3 6.68 -3 5.36 -3 4 C-2.34 4 -1.68 4 -1 4 C-1 4.99 -1 5.98 -1 7 C0.32 7 1.64 7 3 7 C3 5.02 3 3.04 3 1 C2.01 0.67 1.02 0.34 0 0 Z " fill="#2A583E" transform="translate(40,11)"/>
<path d="M0 0 C1.50433594 0.01353516 1.50433594 0.01353516 3.0390625 0.02734375 C3.80992188 0.03894531 4.58078125 0.05054688 5.375 0.0625 C5.705 1.0525 6.035 2.0425 6.375 3.0625 C7.035 3.3925 7.695 3.7225 8.375 4.0625 C7.385 4.5575 7.385 4.5575 6.375 5.0625 C5.715 4.7325 5.055 4.4025 4.375 4.0625 C4.375 3.4025 4.375 2.7425 4.375 2.0625 C1.075 2.0625 -2.225 2.0625 -5.625 2.0625 C-5.625 3.3825 -5.625 4.7025 -5.625 6.0625 C-6.945 6.3925 -8.265 6.7225 -9.625 7.0625 C-9.625 13.3325 -9.625 19.6025 -9.625 26.0625 C-7.315 26.3925 -5.005 26.7225 -2.625 27.0625 C-2.625 27.3925 -2.625 27.7225 -2.625 28.0625 C-5.595 28.0625 -8.565 28.0625 -11.625 28.0625 C-11.74154436 24.5002769 -11.8123639 20.93854658 -11.875 17.375 C-11.90851562 16.36759766 -11.94203125 15.36019531 -11.9765625 14.32226562 C-12.07570627 6.8121251 -12.07570627 6.8121251 -9.734375 2.91796875 C-6.36166229 -0.04876928 -4.4162488 -0.05135173 0 0 Z " fill="#233D31" transform="translate(27.625,7.9375)"/>
<path d="M0 0 C3.3 0 6.6 0 10 0 C10 0.66 10 1.32 10 2 C7.69 2 5.38 2 3 2 C3 2.99 3 3.98 3 5 C4.65 5.33 6.3 5.66 8 6 C8 7.98 8 9.96 8 12 C7.67 10.68 7.34 9.36 7 8 C5.35 7.67 3.7 7.34 2 7 C2 7.66 2 8.32 2 9 C2.99 9.33 3.98 9.66 5 10 C3.68 10.33 2.36 10.66 1 11 C-0.17571451 7.32589215 -0.07366746 3.83070817 0 0 Z " fill="#2B794C" transform="translate(21,20)"/>
<path d="M0 0 C0.33 0.99 0.66 1.98 1 3 C1.66 3.33 2.32 3.66 3 4 C2.01 4.495 2.01 4.495 1 5 C0.34 4.67 -0.32 4.34 -1 4 C-1 3.34 -1 2.68 -1 2 C-4.3 2 -7.6 2 -11 2 C-11 3.32 -11 4.64 -11 6 C-12.32 6.33 -13.64 6.66 -15 7 C-15 4 -15 4 -13.6875 1.8125 C-9.43687023 -1.0542038 -4.9805663 -0.3091386 0 0 Z " fill="#2C5F43" transform="translate(33,8)"/>
<path d="M0 0 C0.33 1.98 0.66 3.96 1 6 C0.01 6.33 -0.98 6.66 -2 7 C-2.66 6.67 -3.32 6.34 -4 6 C-4 5.01 -4 4.02 -4 3 C-5.32 3.33 -6.64 3.66 -8 4 C-7.6875 2.0625 -7.6875 2.0625 -7 0 C-3.86650268 -1.04449911 -3.01031744 -0.93423645 0 0 Z " fill="#46926C" transform="translate(43,12)"/>
<path d="M0 0 C1.1446875 0.2784375 1.1446875 0.2784375 2.3125 0.5625 C5.08967375 1.22819173 5.08967375 1.22819173 8 0 C7.67 1.98 7.34 3.96 7 6 C5.35 6.33 3.7 6.66 2 7 C0.5393715 4.35261084 0 3.10551666 0 0 Z " fill="#363636" transform="translate(48,29)"/>
<path d="M0 0 C0.598125 0.185625 1.19625 0.37125 1.8125 0.5625 C4.16408762 1.22093687 4.16408762 1.22093687 7 0 C7 1.98 7 3.96 7 6 C6.401875 5.814375 5.80375 5.62875 5.1875 5.4375 C2.83591238 4.77906313 2.83591238 4.77906313 0 6 C0 4.02 0 2.04 0 0 Z " fill="#262626" transform="translate(34,38)"/>
<path d="M0 0 C2 0 4 0 6 0 C6 2.31 6 4.62 6 7 C5.34 7 4.68 7 4 7 C3.67 6.34 3.34 5.68 3 5 C2.67 5.66 2.34 6.32 2 7 C1.34 7 0.68 7 0 7 C0 4.69 0 2.38 0 0 Z " fill="#323232" transform="translate(34,29)"/>
<path d="M0 0 C1.2065625 0.0309375 1.2065625 0.0309375 2.4375 0.0625 C2.251875 0.84625 2.06625 1.63 1.875 2.4375 C1.17787734 5.03339775 1.17787734 5.03339775 2.4375 7.0625 C0.4575 7.0625 -1.5225 7.0625 -3.5625 7.0625 C-3.60504356 5.06295254 -3.60330783 3.06208364 -3.5625 1.0625 C-2.5625 0.0625 -2.5625 0.0625 0 0 Z " fill="#424242" transform="translate(44.5625,28.9375)"/>
<path d="M0 0 C8.25 0 16.5 0 25 0 C25 0.33 25 0.66 25 1 C21.04 1 17.08 1 13 1 C12.67 1.99 12.34 2.98 12 4 C11.34 3.34 10.68 2.68 10 2 C7.56747339 1.53837573 7.56747339 1.53837573 4.875 1.375 C3.96492188 1.30023437 3.05484375 1.22546875 2.1171875 1.1484375 C1.41851563 1.09945313 0.71984375 1.05046875 0 1 C0 0.67 0 0.34 0 0 Z " fill="#0B0B0B" transform="translate(24,22)"/>
<path d="M0 0 C1.65 0 3.3 0 5 0 C5 1.98 5 3.96 5 6 C3.35 6 1.7 6 0 6 C0 4.02 0 2.04 0 0 Z " fill="#2E2E2E" transform="translate(43,38)"/>
<path d="M0 0 C1.65 0.33 3.3 0.66 5 1 C5.125 3.375 5.125 3.375 5 6 C3 8 3 8 0.375 8.125 C-0.40875 8.08375 -1.1925 8.0425 -2 8 C-0.68 7.34 0.64 6.68 2 6 C2 5.01 2 4.02 2 3 C1.34 2.67 0.68 2.34 0 2 C0 1.34 0 0.68 0 0 Z " fill="#408864" transform="translate(23,27)"/>
<path d="M0 0 C2.875 0.25 2.875 0.25 6 1 C7.375 3.0625 7.375 3.0625 8 5 C6.02 5.99 6.02 5.99 4 7 C3.67 5.02 3.34 3.04 3 1 C2.01 0.67 1.02 0.34 0 0 Z " fill="#2E4E3B" transform="translate(40,11)"/>
<path d="M0 0 C1.65 1.65 3.3 3.3 5 5 C3.02 5.99 3.02 5.99 1 7 C1 6.34 1 5.68 1 5 C0.01 4.67 -0.98 4.34 -2 4 C-1.34 2.68 -0.68 1.36 0 0 Z " fill="#E5E5E5" transform="translate(36,33)"/>
<path d="M0 0 C0.99 0.33 1.98 0.66 3 1 C2.67 2.32 2.34 3.64 2 5 C0.68 4.67 -0.64 4.34 -2 4 C-2 3.01 -2 2.02 -2 1 C-1.34 0.67 -0.68 0.34 0 0 Z " fill="#B7B7B7" transform="translate(41,14)"/>
</svg>
